[IMG]http://img854.imageshack.us/img854/1899/43945332.jpg[/IMG]

[CODE]
General
Complete name                            : Pata Ni Rab Kehdeyan Rangan Ch Raazi [Punjabi] (2012) DvdScrRip.avi
Format                                   : AVI
Format/Info                              : Audio Video Interleave
File size                                : 695 MiB
Duration                                 : 2h 19mn
Overall bit rate                         : 695 Kbps

Video
ID                                       : 0
Format                                   : MPEG-4 Visual
Format profile                           : Advanced Simple@L5
Format settings, BVOP                    : 2
Format settings, QPel                    : Yes
Format settings, GMC                     : No warppoints
Format settings, Matrix                  : Default (H.263)
Codec ID                                 : XVID
Codec ID/Hint                            : XviD
Duration                                 : 2h 19mn
Bit rate                                 : 593 Kbps
Width                                    : 672 pixels
Height                                   : 272 pixels
Display aspect ratio                     : 2.471
Frame rate                               : 23.976 fps
Color space                              : YUV
Chroma subsampling                       : 4:2:0
Bit depth                                : 8 bits
Scan type                                : Progressive
Compression mode                         : Lossy
Bits/(Pixel*Frame)                       : 0.135
Stream size                              : 593 MiB (85%)
Writing library                          : XviD 1.2.1 (UTC 2008-12-04)

Audio
ID                                       : 1
Format                                   : MPEG Audio
Format version                           : Version 1
Format profile                           : Layer 3
Mode                                     : Joint stereo
Mode extension                           : MS Stereo
Codec ID                                 : 55
Codec ID/Hint                            : MP3
Duration                                 : 2h 19mn
Bit rate mode                            : Constant
Bit rate                                 : 96.0 Kbps
Channel(s)                               : 2 channels
Sampling rate                            : 32.0 KHz
Compression mode                         : Lossy
Stream size                              : 96.0 MiB (14%)
Alignment                                : Aligned on interleaves
Interleave, duration                     : 167 ms (4.00 video frames)
Interleave, preload duration             : 216 ms
Title                                    : VTS_01_1 T01 2_0ch 192Kbps DELAY 0ms
Writing library                          : LAME3.99r
Encoding settings                        : -m j -V 4 -q 2 -lowpass 15.1 -b 96
[/CODE]

[HIDE]
[IMG]http://img823.imageshack.us/img823/767/27163965.jpg[/IMG]
[/HIDE]